<?xml version="1.0" encoding="UTF-8" standalone="no"?>
<svg
   xmlns:dc="http://purl.org/dc/elements/1.1/"
   xmlns:cc="http://creativecommons.org/ns#"
   xmlns:rdf="http://www.w3.org/1999/02/22-rdf-syntax-ns#"
   xmlns:svg="http://www.w3.org/2000/svg"
   xmlns="http://www.w3.org/2000/svg"
   xmlns:sodipodi="http://sodipodi.sourceforge.net/DTD/sodipodi-0.dtd"
   xmlns:inkscape="http://www.inkscape.org/namespaces/inkscape"
   t="1621312280636"
   class="icon"
   viewBox="0 0 1024 1024"
   version="1.1"
   p-id="11117"
   width="512"
   height="512"
   id="svg10"
   sodipodi:docname="light-component-uia-hover (2).svg"
   inkscape:version="0.92.5 (2060ec1f9f, 2020-04-08)">
  <metadata
     id="metadata14">
    <rdf:RDF>
      <cc:Work
         rdf:about="">
        <dc:format>image/svg+xml</dc:format>
        <dc:type
           rdf:resource="http://purl.org/dc/dcmitype/StillImage" />
        <dc:title></dc:title>
      </cc:Work>
    </rdf:RDF>
  </metadata>
  <sodipodi:namedview
     pagecolor="#ffffff"
     bordercolor="#666666"
     borderopacity="1"
     objecttolerance="10"
     gridtolerance="10"
     guidetolerance="10"
     inkscape:pageopacity="0"
     inkscape:pageshadow="2"
     inkscape:window-width="1920"
     inkscape:window-height="1016"
     id="namedview12"
     showgrid="false"
     inkscape:zoom="0.4609375"
     inkscape:cx="253.83051"
     inkscape:cy="256"
     inkscape:window-x="0"
     inkscape:window-y="27"
     inkscape:window-maximized="1"
     inkscape:current-layer="svg10" />
  <defs
     id="defs4">
    <style
       type="text/css"
       id="style2" />
  </defs>
  <g
     id="g831"
     transform="rotate(90,512,520.0021)">
    <path
       id="path6"
       p-id="11118"
       d="M 912,144 V 560 H 732.48 V 528 H 880 V 176 H 144 v 352 h 175.488 v 32 H 112 V 144 Z"
       inkscape:connector-curvature="0"
       style="fill:#646e7f" />
    <g
       id="g822">
      <g
         id="g825">
        <path
           id="path8"
           p-id="11119"
           d="m 400.544,816.704 0.704,3.584 a 21.344,21.344 0 0 0 37.056,7.36 l 58.688,-72.48 75.68,130.24 c 5.888,10.112 18.88,13.6 29.056,7.776 l 91.52,-52.512 3.2,-2.24 a 21.344,21.344 0 0 0 4.672,-27.008 l -74.528,-128.192 91.744,-16.064 a 21.344,21.344 0 0 0 8.64,-38.432 L 385.6,387.968 a 21.344,21.344 0 0 0 -33.472,19.936 l 48.384,408.8 z"
           inkscape:connector-curvature="0"
           style="fill:#00c296" />
      </g>
    </g>
  </g>
</svg>
